<svg 
 xmlns="http://www.w3.org/2000/svg"
 xmlns:xlink="http://www.w3.org/1999/xlink"
 width="16px" height="16px">
<path fill-rule="evenodd"  fill="currentColor"
 d="M7.999,-0.001 C3.580,-0.001 -0.001,3.580 -0.001,7.999 C-0.001,12.418 3.581,15.999 7.999,15.999 C12.418,15.999 15.998,12.418 15.998,7.999 C15.998,3.580 12.418,-0.001 7.999,-0.001 ZM7.999,2.856 C9.262,2.856 10.285,3.880 10.285,5.142 C10.285,6.405 9.262,7.428 7.999,7.428 C6.736,7.428 5.713,6.405 5.713,5.142 C5.713,3.880 6.736,2.856 7.999,2.856 ZM7.999,13.143 C5.790,13.143 3.999,11.991 3.999,10.571 C3.999,9.151 5.790,7.999 7.999,7.999 C10.208,7.999 11.999,9.151 11.999,10.571 C11.999,11.991 10.208,13.143 7.999,13.143 Z"/>
</svg>