<svg 
 xmlns="http://www.w3.org/2000/svg"
 xmlns:xlink="http://www.w3.org/1999/xlink"
 width="16px" height="16px">
<path fill-rule="evenodd"  fill="currentColor"
 d="M7.999,15.999 C3.581,15.999 -0.001,12.309 -0.001,7.808 C-0.001,5.530 0.918,3.474 2.395,1.995 L3.811,3.438 C2.695,4.549 1.999,6.096 1.999,7.808 C1.999,11.178 4.691,13.999 7.999,13.999 C11.308,13.999 13.999,11.178 13.999,7.808 C13.999,6.096 13.303,4.549 12.188,3.438 L13.603,1.995 C15.081,3.474 16.000,5.530 16.000,7.808 C16.000,12.309 12.418,15.999 7.999,15.999 ZM6.999,-0.001 L8.999,-0.001 L8.999,6.999 L6.999,6.999 L6.999,-0.001 Z"/>
</svg>